# xmcd CD database file
#
# Track frame offsets:
#	150
#	13094
#	25682
#	48857
#	61724
#	72453
#	86930
#	101133
#	115673
#	129953
#	144536
#	158726
#	171024
#	185665
#	200030
#	214228
#	228977
#	242621
#	254502
#	268633
#
# Disc length: 3774 seconds
#
# Revision: 0
# Processed by: cddbd v1.5.1PL0 Copyright (c) Steve Scherf et al.
# Submitted via: CDex 1.51
#
DISCID=1d0ebc14
DTITLE=Ella Fitzgerald - The Definitive Collection 1936-1953 [CD1]
DYEAR=2004
DGENRE=Jazz
TTITLE0=Melancholy Me
TTITLE1=Careless
TTITLE2=You'll Have To Swing It (Mr. Paganini)
TTITLE3=A Guy Is A Guy
TTITLE4=Goody Goody
TTITLE5=I Don't Want To Take A Chance
TTITLE6=Because Of Rain
TTITLE7=Someone To Watch Over Me
TTITLE8=Can Anyone Explain? (with Louis Armstrong)
TTITLE9=I've Got The World On A String
TTITLE10=(I Love You) For Sentimental Reasons
TTITLE11=I'm Beginning To See The Light (with The Ink Spots)
TTITLE12=And Her Tears Flowed Like Wine
TTITLE13=I'm Making Believe (with The Ink Spots)
TTITLE14=Five O'Clock Whistle
TTITLE15=Undecided
TTITLE16=Wacky Dust
TTITLE17=A-Tisket, A-Tasket
TTITLE18=Rock It For Me
TTITLE19=Dedicated To You (with The Mills Brothers)
EXTD=YEAR: 2004
EXTT0=
EXTT1=
EXTT2=
EXTT3=
EXTT4=
EXTT5=
EXTT6=
EXTT7=
EXTT8=
EXTT9=
EXTT10=
EXTT11=
EXTT12=
EXTT13=
EXTT14=
EXTT15=
EXTT16=
EXTT17=
EXTT18=
EXTT19=
PLAYORDER=
